<svg xmlns="http://www.w3.org/2000/svg" version="1.1" xmlns:xlink="http://www.w3.org/1999/xlink" xmlns:svgjs="http://svgjs.dev/svgjs" width="1500" height="903" viewBox="0 0 1500 903"><g transform="matrix(1,0,0,1,0.20703114637183262,0)"><svg viewBox="0 0 332 200" data-background-color="#fdf8f1" preserveAspectRatio="xMidYMid meet" height="903" width="1500" xmlns="http://www.w3.org/2000/svg" xmlns:xlink="http://www.w3.org/1999/xlink"><g id="tight-bounds" transform="matrix(1,0,0,1,-0.04582289373030335,0)"><svg viewBox="0 0 332.0916457874606 200" height="200" width="332.0916457874606"><g><svg viewBox="0 0 375.54901909585806 226.1719160115279" height="200" width="332.0916457874606"><g><rect width="5.569029104296458" height="226.1719160115279" x="144.75689920833221" y="0" fill="#fa4238" opacity="1" stroke-width="0" stroke="transparent" fill-opacity="1" class="rect-qz-0" data-fill-palette-color="primary" rx="1%" id="qz-0" data-palette-color="#fa4238"></rect></g><g transform="matrix(1,0,0,1,164.9045385333,0.5626167064963283)"><svg viewBox="0 0 210.64448056255804 225.04668259853526" height="225.04668259853526" width="210.64448056255804"><g id="textblocktransform"><svg viewBox="0 0 210.64448056255804 225.04668259853526" height="225.04668259853526" width="210.64448056255804" id="textblock"><g><svg viewBox="0 0 210.64448056255804 198.764" height="198.764" width="210.64448056255804"><g transform="matrix(1,0,0,1,0,0)"><svg width="210.64448056255804" viewBox="0.59 -31.88 140.91 121.02999999999999" height="198.764" data-palette-color="#fa4238"><svg></svg><svg></svg><svg></svg><g class="wordmark-text-0" data-fill-palette-color="primary" id="text-0"><path d="M1.42 0h24.17l0.9-8.08-2.08-0.32-3.19 6.06h-10.8v-25.03l4.18-1.15 0.24-1.85h-13.42l-0.32 1.85 4.59 1.25v24.32l-4.05 1.14zM32.71-26.12c0.527 0 1.02-0.137 1.48-0.41 0.467-0.267 0.833-0.627 1.1-1.08 0.267-0.46 0.4-0.957 0.4-1.49v0c0-0.78-0.293-1.44-0.88-1.98-0.58-0.533-1.28-0.8-2.1-0.8v0c-0.78 0-1.457 0.263-2.03 0.79-0.58 0.527-0.87 1.173-0.87 1.94v0c0 0.54 0.13 1.04 0.39 1.5 0.26 0.467 0.613 0.837 1.06 1.11 0.447 0.28 0.93 0.42 1.45 0.42zM26.9 0h11.72l0.27-1.95-3.9-0.88v-18.17l-0.61-0.61-6.87 0.57-0.31 1.85 3.68 1.34v15.02l-3.68 0.9zM42.48-27.78v26.58c0.927 0.587 1.983 1.027 3.17 1.32 1.193 0.293 2.373 0.44 3.54 0.44v0c2.153 0 4.15-0.48 5.99-1.44 1.833-0.96 3.3-2.35 4.4-4.17 1.1-1.827 1.65-3.983 1.65-6.47v0c0-2.04-0.33-3.847-0.99-5.42-0.66-1.58-1.583-2.81-2.77-3.69-1.187-0.88-2.563-1.32-4.13-1.32v0c-1.3 0-2.52 0.333-3.66 1-1.14 0.667-2.237 1.597-3.29 2.79v0h-0.27l0.34-2.57v-10.15l-0.59-0.57-6.76 0.52-0.32 1.85zM46.46-16.41c1.48-1.56 3.22-2.34 5.22-2.34v0c1.307 0 2.343 0.45 3.11 1.35 0.76 0.907 1.297 2.023 1.61 3.35 0.307 1.327 0.46 2.69 0.46 4.09v0c0 1.74-0.237 3.197-0.71 4.37-0.473 1.173-1.107 2.043-1.9 2.61-0.8 0.573-1.68 0.86-2.64 0.86v0c-1.06 0-2.06-0.157-3-0.47-0.947-0.307-1.663-0.703-2.15-1.19v0zM76.93 0l0.24-2.12-5.69-0.83v-9.35c0.167-1.16 0.49-2.137 0.97-2.93 0.48-0.8 1.013-1.4 1.6-1.8 0.587-0.4 1.123-0.6 1.61-0.6v0c0.473 0 0.97 0.087 1.49 0.26 0.52 0.173 1.017 0.407 1.49 0.7v0c0.927-0.787 1.39-1.69 1.39-2.71v0c0-0.733-0.253-1.373-0.76-1.92-0.5-0.547-1.15-0.82-1.95-0.82v0c-0.733 0-1.473 0.25-2.22 0.75-0.753 0.493-1.463 1.237-2.13 2.23-0.667 0.993-1.21 2.197-1.63 3.61v0h-0.47l0.49-5.61-0.56-0.59-7.01 0.9-0.34 1.86 3.98 1.2v14.99l-3.73 0.97-0.25 1.81zM86.35 0.59c1.76 0 3.197-0.403 4.31-1.21 1.113-0.807 1.907-1.667 2.38-2.58v0h0.27v0.37c0 0.533 0.127 1.05 0.38 1.55 0.253 0.493 0.663 0.903 1.23 1.23 0.573 0.327 1.297 0.49 2.17 0.49v0c0.687 0 1.42-0.09 2.2-0.27v0c0.507-0.1 0.883-0.163 1.13-0.19v0l0.31-2.1-1.22-0.22c-0.767-0.133-1.34-0.31-1.72-0.53-0.38-0.22-0.643-0.537-0.79-0.95-0.147-0.413-0.22-1.013-0.22-1.8v0-8.86c0-2.6-0.47-4.5-1.41-5.7-0.933-1.193-2.473-1.79-4.62-1.79v0c-1.14 0-2.37 0.237-3.69 0.71-1.32 0.467-2.427 1.087-3.32 1.86-0.893 0.773-1.34 1.583-1.34 2.43v0c0 1.06 0.323 1.743 0.97 2.05 0.653 0.313 1.46 0.47 2.42 0.47v0c0.147-1.647 0.273-2.78 0.38-3.4 0.107-0.613 0.33-1.077 0.67-1.39 0.34-0.307 0.893-0.46 1.66-0.46v0c1.547 0 2.653 0.613 3.32 1.84 0.667 1.227 1 2.787 1 4.68v0 1.34c-2.54 0.18-4.65 0.647-6.33 1.4-1.687 0.76-2.93 1.693-3.73 2.8-0.793 1.107-1.19 2.287-1.19 3.54v0c0 0.96 0.213 1.793 0.64 2.5 0.433 0.707 1.017 1.247 1.75 1.62 0.733 0.38 1.53 0.57 2.39 0.57zM92.82-10.45v5.86c-0.487 0.54-1.12 1.037-1.9 1.49-0.78 0.453-1.563 0.68-2.35 0.68v0c-0.567 0-1.057-0.147-1.47-0.44-0.42-0.293-0.733-0.66-0.94-1.1-0.213-0.433-0.32-0.863-0.32-1.29v0c0-1.253 0.53-2.307 1.59-3.16 1.053-0.853 2.85-1.533 5.39-2.04zM115.14 0l0.24-2.12-5.69-0.83v-9.35c0.167-1.16 0.49-2.137 0.97-2.93 0.48-0.8 1.013-1.4 1.6-1.8 0.58-0.4 1.117-0.6 1.61-0.6v0c0.473 0 0.97 0.087 1.49 0.26 0.52 0.173 1.017 0.407 1.49 0.7v0c0.927-0.787 1.39-1.69 1.39-2.71v0c0-0.733-0.253-1.373-0.76-1.92-0.507-0.547-1.157-0.82-1.95-0.82v0c-0.733 0-1.473 0.25-2.22 0.75-0.753 0.493-1.463 1.237-2.13 2.23-0.667 0.993-1.21 2.197-1.63 3.61v0h-0.47l0.49-5.61-0.56-0.59-7.01 0.9-0.34 1.86 3.98 1.2v14.99l-3.74 0.97-0.24 1.81zM122.58 9.28c1.273 0 2.357-0.237 3.25-0.71 0.893-0.473 1.73-1.28 2.51-2.42 0.787-1.14 1.603-2.76 2.45-4.86v0l8.08-19.8 2.46-1 0.17-1.8h-8.35l-0.34 1.83 3.2 1.02-5.27 13.04-4.98-13.16 3.1-0.93 0.22-1.8h-10.26l-0.27 1.88 3.03 0.92 6.96 18.51-0.49 1.2c-0.587 1.447-1.223 2.397-1.91 2.85-0.693 0.46-1.447 0.69-2.26 0.69v0c-0.64 0-1.247-0.103-1.82-0.31-0.58-0.2-1.203-0.53-1.87-0.99v0c-0.52 0.46-0.877 0.923-1.07 1.39-0.2 0.473-0.3 0.987-0.3 1.54v0c0 0.473 0.16 0.933 0.48 1.38 0.32 0.447 0.767 0.813 1.34 1.1 0.58 0.287 1.227 0.43 1.94 0.43z" fill="#fa4238" fill-rule="nonzero" stroke="none" stroke-width="1" stroke-linecap="butt" stroke-linejoin="miter" stroke-miterlimit="10" stroke-dasharray="" stroke-dashoffset="0" font-family="none" font-weight="none" font-size="none" text-anchor="none" style="mix-blend-mode: normal" data-fill-palette-color="primary" opacity="1"></path><path transform="translate(0,44.16)" d="M11.3 0.66c1.893 0 3.62-0.48 5.18-1.44 1.56-0.96 2.793-2.31 3.7-4.05 0.9-1.747 1.35-3.727 1.35-5.94v0c0-2.227-0.387-4.19-1.16-5.89-0.773-1.7-1.887-3.023-3.34-3.97-1.46-0.947-3.173-1.42-5.14-1.42v0c-1.853 0-3.59 0.467-5.21 1.4-1.62 0.927-2.927 2.273-3.92 4.04-0.993 1.767-1.49 3.837-1.49 6.21v0c0 2.113 0.393 4.007 1.18 5.68 0.793 1.667 1.943 2.98 3.45 3.94 1.5 0.96 3.3 1.44 5.4 1.44zM10.86-19.48c1.453 0 2.657 0.533 3.61 1.6 0.947 1.067 1.637 2.413 2.07 4.04 0.433 1.627 0.65 3.32 0.65 5.08v0c0 1.2-0.187 2.337-0.56 3.41-0.38 1.073-0.95 1.95-1.71 2.63-0.767 0.673-1.697 1.01-2.79 1.01v0c-1.513 0-2.757-0.497-3.73-1.49-0.98-0.993-1.69-2.28-2.13-3.86-0.433-1.573-0.65-3.263-0.65-5.07v0c0-1.34 0.187-2.567 0.56-3.68 0.373-1.113 0.953-2.003 1.74-2.67 0.793-0.667 1.773-1 2.94-1zM37.55 0l0.17-2.03-5.98-0.92v-16.19h5.98l0.29-2.17h-6.27l0.05-2.64c0.047-2.247 0.333-3.813 0.86-4.7 0.533-0.887 1.297-1.33 2.29-1.33v0c0.68 0 1.41 0.3 2.19 0.9 0.787 0.607 1.487 1.29 2.1 2.05v0c0.473-0.173 0.953-0.533 1.44-1.08 0.493-0.547 0.74-1.097 0.74-1.65v0c0-0.927-0.42-1.627-1.26-2.1-0.84-0.473-1.943-0.71-3.31-0.71v0c-1.233 0-2.51 0.423-3.83 1.27-1.32 0.847-2.473 2.11-3.46 3.79-0.98 1.673-1.6 3.69-1.86 6.05v0l-3.37 0.54-0.3 1.78h3.64v16.31l-3.71 1.05-0.29 1.78z" fill="#fa4238" fill-rule="nonzero" stroke="none" stroke-width="1" stroke-linecap="butt" stroke-linejoin="miter" stroke-miterlimit="10" stroke-dasharray="" stroke-dashoffset="0" font-family="none" font-weight="none" font-size="none" text-anchor="none" style="mix-blend-mode: normal" data-fill-palette-color="primary" opacity="1"></path><path transform="translate(0,88.32)" d="M0.59 0h11.71l0.32-1.95-4.47-0.83 1.54-20.83 8.38 22.85 3.12-0.46 9.3-23.29 1.37 21.56-4.05 1.14-0.27 1.81h13.09l0.24-1.95-4.44-0.83-1.27-24.81 4.1-0.93 0.24-1.85h-9.64l-1.73 3.93-7.5 18.8-6.4-17.99-1.9-4.74h-9.84l-0.24 1.85 4.46 1.03-1.78 24.54-4.08 1.14zM44.46-17.77v11.25c0 2.493 0.483 4.297 1.45 5.41 0.967 1.113 2.297 1.67 3.99 1.67v0c2.933 0 5.26-1.253 6.98-3.76v0h0.32v0.22c0 1.06 0.307 1.913 0.92 2.56 0.607 0.653 1.497 0.98 2.67 0.98v0c0.72 0 1.323-0.033 1.81-0.1 0.487-0.06 1.113-0.18 1.88-0.36v0l0.22-2.03-1.13-0.24c-0.667-0.147-1.17-0.303-1.51-0.47-0.34-0.16-0.613-0.44-0.82-0.84-0.2-0.4-0.3-0.99-0.3-1.77v0-15.72l-0.52-0.59-7.17 0.66-0.25 2.25 3.88 1.02v12.97c-0.58 0.6-1.227 1.063-1.94 1.39-0.707 0.327-1.573 0.49-2.6 0.49v0c-2.507 0-3.76-1.653-3.76-4.96v0-13.23l-0.61-0.59-6.54 0.52-0.34 1.92zM73.39 0.83c1.253 0 2.46-0.27 3.62-0.81 1.167-0.533 2.107-1.277 2.82-2.23 0.72-0.953 1.08-2.007 1.08-3.16v0c0-1.093-0.287-2.057-0.86-2.89-0.567-0.84-1.253-1.547-2.06-2.12-0.807-0.567-1.86-1.207-3.16-1.92v0c-1.073-0.607-1.913-1.113-2.52-1.52-0.6-0.407-1.103-0.873-1.51-1.4-0.407-0.533-0.61-1.123-0.61-1.77v0c0-0.813 0.25-1.507 0.75-2.08 0.493-0.567 1.153-0.85 1.98-0.85v0c0.947 0 1.747 0.46 2.4 1.38 0.647 0.92 1.117 2.307 1.41 4.16v0c1.06-0.067 1.897-0.393 2.51-0.98 0.607-0.587 0.91-1.343 0.91-2.27v0c0-0.813-0.247-1.55-0.74-2.21-0.5-0.66-1.207-1.18-2.12-1.56-0.907-0.38-1.947-0.57-3.12-0.57v0c-1.547 0-2.87 0.33-3.97 0.99-1.1 0.653-1.927 1.477-2.48 2.47-0.553 0.993-0.83 1.997-0.83 3.01v0c0 1.167 0.3 2.2 0.9 3.1 0.593 0.893 1.307 1.647 2.14 2.26 0.84 0.607 1.927 1.293 3.26 2.06v0c0.98 0.553 1.743 1.013 2.29 1.38 0.54 0.367 0.99 0.773 1.35 1.22 0.36 0.447 0.54 0.93 0.54 1.45v0c0 0.847-0.303 1.47-0.91 1.87-0.6 0.4-1.37 0.6-2.31 0.6v0c-1.013 0-1.943-0.403-2.79-1.21-0.847-0.807-1.537-2.007-2.07-3.6v0c-0.913 0.067-1.64 0.423-2.18 1.07-0.533 0.653-0.8 1.437-0.8 2.35v0c0 0.647 0.293 1.263 0.88 1.85 0.587 0.587 1.417 1.057 2.49 1.41 1.073 0.347 2.31 0.52 3.71 0.52zM88.82-26.12c0.52 0 1.013-0.137 1.48-0.41 0.46-0.267 0.823-0.627 1.09-1.08 0.273-0.46 0.41-0.957 0.41-1.49v0c0-0.78-0.293-1.44-0.88-1.98-0.587-0.533-1.287-0.8-2.1-0.8v0c-0.78 0-1.46 0.263-2.04 0.79-0.58 0.527-0.87 1.173-0.87 1.94v0c0 0.54 0.13 1.04 0.39 1.5 0.26 0.467 0.617 0.837 1.07 1.11 0.447 0.28 0.93 0.42 1.45 0.42zM83.01 0h11.72l0.27-1.95-3.91-0.88v-18.17l-0.61-0.61-6.86 0.57-0.32 1.85 3.69 1.34v15.02l-3.69 0.9zM106.13 0.73c1.513 0 2.98-0.297 4.4-0.89 1.427-0.593 2.483-1.297 3.17-2.11v0l-0.61-1.42c-0.733 0.473-1.467 0.84-2.2 1.1-0.733 0.26-1.647 0.39-2.74 0.39v0c-1.573 0-2.907-0.537-4-1.61-1.093-1.073-1.907-2.4-2.44-3.98-0.54-1.58-0.81-3.11-0.81-4.59v0c0-1.467 0.2-2.747 0.6-3.84 0.4-1.1 0.963-1.95 1.69-2.55 0.72-0.607 1.56-0.91 2.52-0.91v0c0.947 0 1.717 0.38 2.31 1.14 0.593 0.753 1.133 1.71 1.62 2.87v0c0.993-0.067 1.76-0.33 2.3-0.79 0.533-0.453 0.8-1.047 0.8-1.78v0c0-0.667-0.213-1.283-0.64-1.85-0.433-0.573-1.09-1.03-1.97-1.37-0.88-0.34-1.97-0.51-3.27-0.51v0c-1.793 0-3.483 0.49-5.07 1.47-1.587 0.987-2.867 2.38-3.84 4.18-0.98 1.8-1.47 3.863-1.47 6.19v0c0 1.953 0.4 3.76 1.2 5.42 0.8 1.66 1.93 2.983 3.39 3.97 1.467 0.98 3.153 1.47 5.06 1.47z" fill="#fa4238" fill-rule="nonzero" stroke="none" stroke-width="1" stroke-linecap="butt" stroke-linejoin="miter" stroke-miterlimit="10" stroke-dasharray="" stroke-dashoffset="0" font-family="none" font-weight="none" font-size="none" text-anchor="none" style="mix-blend-mode: normal" data-fill-palette-color="primary" opacity="1"></path></g></svg></g></svg></g><g transform="matrix(1,0,0,1,0,213.34261022067136)"><svg viewBox="0 0 123.66937453827782 11.704072377863906" height="11.704072377863906" width="123.66937453827782"><g transform="matrix(1,0,0,1,0,0)"><svg width="123.66937453827782" viewBox="1.76 -37.99 522.85 49.49" height="11.704072377863906" data-palette-color="#fa4238"><path d="M35.01-27.25L29.76-27.25Q28.13-30.03 25.43-31.62 22.73-33.2 19.41-33.2L19.41-33.2Q16.58-33.2 14.23-32.01 11.89-30.81 10.22-28.8 8.54-26.78 7.62-24.13 6.69-21.48 6.69-18.55L6.69-18.55Q6.69-15.09 7.71-12.41 8.74-9.74 10.39-7.97 12.04-6.2 14.31-5.02 16.58-3.83 19.41-3.83L19.41-3.83Q23.27-3.83 26.12-5.7 28.98-7.57 31.01-11.84L31.01-11.84 35.3-9.81Q34.38-7.18 32.15-4.72 29.93-2.27 26.67-0.77 23.41 0.73 19.46 0.73L19.46 0.73Q15.67 0.73 12.5-0.7 9.33-2.12 6.85-4.76 4.37-7.4 3.06-11.01 1.76-14.62 1.76-18.55L1.76-18.55Q1.76-22.51 3.06-26.03 4.37-29.54 6.73-32.14 9.08-34.74 12.34-36.24 15.6-37.74 19.41-37.74L19.41-37.74Q22.8-37.74 25.27-36.78 27.73-35.82 29.46-34.48 31.18-33.15 32.42-31.59L32.42-31.59 35.01-31.59 35.01-27.25ZM57.47-25.44L57.47-19.95 52.83-19.95 52.83-21.51Q52.02-21.51 51.18-21.2 50.34-20.9 49.61-20.28 48.87-19.65 48.33-18.69 47.78-17.72 47.53-16.41L47.53-16.41 47.53-4.2 51.83-4.2 51.83 0 39.28 0 39.28-4.2 42.77-4.2 42.8-21.09 39.28-21.09 39.28-25.29 47.36-25.29 47.36-21.8Q47.8-22.58 48.35-23.25 48.9-23.93 49.57-24.43 50.24-24.93 51.06-25.21 51.88-25.49 52.83-25.49L52.83-25.49Q54.1-25.49 55.22-25.49 56.35-25.49 57.47-25.44L57.47-25.44ZM85.22-12.06L67.01-12.06Q67.01-10.99 67.17-10.1 67.33-9.2 67.62-8.4L67.62-8.4Q68.53-5.96 70.52-4.72 72.5-3.49 75.02-3.49L75.02-3.49Q77-3.49 78.86-4.04 80.73-4.59 82.78-5.76L82.78-5.76 84.61-2.66Q82.12-0.95 79.61-0.12 77.09 0.71 74.38 0.71L74.38 0.71Q71.82 0.71 69.64-0.15 67.45-1 65.88-2.69 64.3-4.37 63.41-6.88 62.52-9.4 62.52-12.74L62.52-12.74Q62.52-15.45 63.28-17.86 64.03-20.26 65.53-22.06 67.04-23.85 69.26-24.9 71.48-25.95 74.43-25.95L74.43-25.95Q77.29-25.95 79.21-25.09 81.12-24.22 82.33-22.79 83.54-21.36 84.16-19.53 84.79-17.7 85.03-15.8L85.03-15.8Q85.15-14.87 85.19-13.92 85.22-12.96 85.22-12.06L85.22-12.06ZM74.12-22.14L74.12-22.14Q72.53-22.14 71.35-21.69 70.16-21.24 69.33-20.4 68.5-19.56 68-18.33 67.5-17.11 67.26-15.6L67.26-15.6 80.37-15.6Q80.27-17.02 79.91-18.21 79.56-19.41 78.83-20.29 78.1-21.17 76.95-21.66 75.8-22.14 74.12-22.14ZM106.27 0L106.27-2.34Q104.83-1 103.08-0.15 101.34 0.71 99.11 0.71L99.11 0.71Q97.26 0.71 95.71 0.12 94.16-0.46 93.03-1.48 91.91-2.49 91.29-3.83 90.67-5.18 90.67-6.69L90.67-6.69Q90.67-8.3 91.14-9.55 91.62-10.79 92.41-11.71 93.21-12.62 94.27-13.24 95.33-13.87 96.49-14.25 97.65-14.62 98.86-14.78 100.07-14.94 101.16-14.94L101.16-14.94Q102.92-14.94 104.12-14.83 105.31-14.72 106.29-14.53L106.29-14.53 106.32-16.6Q106.32-17.94 105.93-18.93 105.53-19.92 104.83-20.57 104.12-21.22 103.13-21.53 102.14-21.85 100.92-21.85L100.92-21.85Q99.77-21.85 98.72-21.69 97.67-21.53 96.76-21.28 95.84-21.02 95.07-20.69 94.3-20.36 93.77-20L93.77-20 92.28-23.14Q93.18-23.73 94.26-24.23 95.33-24.73 96.51-25.09 97.7-25.44 98.93-25.65 100.16-25.85 101.36-25.85L101.36-25.85Q103.56-25.85 105.31-25.33 107.07-24.8 108.29-23.71 109.51-22.61 110.17-20.91 110.83-19.21 110.83-16.85L110.83-16.85 110.81-4.2 113.62-4.2 113.62 0 106.27 0ZM100.11-3.1L100.11-3.1Q101.02-3.1 101.92-3.32 102.82-3.54 103.63-3.92 104.44-4.3 105.12-4.8 105.8-5.3 106.27-5.83L106.27-5.83 106.29-11.55 101.02-11.55Q99.7-11.55 98.61-11.25 97.53-10.96 96.73-10.4 95.94-9.84 95.5-9.01 95.06-8.18 95.06-7.1L95.06-7.1Q95.06-6.1 95.43-5.36 95.79-4.61 96.46-4.11 97.14-3.61 98.06-3.36 98.99-3.1 100.11-3.1ZM126.06-33.45L126.06-25.29 132-25.29 132-21.61 126.02-21.61 125.94-7.01Q125.94-5.52 126.28-4.59 126.63-3.66 127.38-3.31 128.14-2.95 129.09-2.95L129.09-2.95Q130.12-2.95 130.9-3.14 131.68-3.32 132.61-3.76L132.61-3.76 133.66-0.71Q132.49-0.1 131.19 0.26 129.9 0.61 128.14 0.61L128.14 0.61Q126.48 0.61 125.25 0.21 124.01-0.2 123.17-1.15 122.33-2.1 121.91-3.7 121.5-5.3 121.5-7.69L121.5-7.69 121.57-21.61 117.54-21.61 117.54-25.29 121.62-25.29 121.62-31.35 126.06-33.45ZM159.85-12.06L141.64-12.06Q141.64-10.99 141.8-10.1 141.96-9.2 142.25-8.4L142.25-8.4Q143.15-5.96 145.14-4.72 147.13-3.49 149.65-3.49L149.65-3.49Q151.62-3.49 153.49-4.04 155.36-4.59 157.41-5.76L157.41-5.76 159.24-2.66Q156.75-0.95 154.24-0.12 151.72 0.71 149.01 0.71L149.01 0.71Q146.45 0.71 144.26-0.15 142.08-1 140.5-2.69 138.93-4.37 138.04-6.88 137.15-9.4 137.15-12.74L137.15-12.74Q137.15-15.45 137.9-17.86 138.66-20.26 140.16-22.06 141.66-23.85 143.88-24.9 146.11-25.95 149.06-25.95L149.06-25.95Q151.92-25.95 153.83-25.09 155.75-24.22 156.96-22.79 158.17-21.36 158.79-19.53 159.41-17.7 159.66-15.8L159.66-15.8Q159.78-14.87 159.81-13.92 159.85-12.96 159.85-12.06L159.85-12.06ZM148.74-22.14L148.74-22.14Q147.16-22.14 145.97-21.69 144.79-21.24 143.96-20.4 143.13-19.56 142.63-18.33 142.13-17.11 141.88-15.6L141.88-15.6 154.99-15.6Q154.89-17.02 154.54-18.21 154.19-19.41 153.45-20.29 152.72-21.17 151.57-21.66 150.43-22.14 148.74-22.14ZM164.07 7.01L168.59-6.91 173.94-4.81 167.59 8.3 164.07 7.01ZM171.71 0Q171.71 0 171.71 0ZM185.4-32.79L185.4-37.01 197.39-37.01 197.39-32.79 193.61-32.79 193.61-15.55Q193.61-12.45 194.3-10.27 195-8.08 196.23-6.7 197.47-5.32 199.16-4.69 200.86-4.05 202.89-4.05L202.89-4.05Q204.98-4.05 206.74-4.61 208.5-5.18 209.76-6.51 211.02-7.84 211.71-10.05 212.41-12.26 212.41-15.55L212.41-15.55 212.41-32.79 208.4-32.79 208.4-37.01 220.39-37.01 220.39-32.79 217.09-32.79 217.09-16.09Q217.09-12.08 215.98-8.98 214.87-5.88 212.94-3.78 211.02-1.68 208.4-0.6 205.79 0.49 202.79 0.49L202.79 0.49Q199.86 0.49 197.31-0.59 194.76-1.66 192.86-3.74 190.97-5.81 189.88-8.8 188.8-11.79 188.8-15.65L188.8-15.65 188.8-32.79 185.4-32.79ZM221.93-21.09L221.93-25.29 229.98-25.29 229.98-23.19Q231.59-24.44 233.5-25.17 235.4-25.9 237.43-25.9L237.43-25.9Q239.92-25.9 241.99-24.98 244.07-24.05 245.57-22.36 247.07-20.68 247.9-18.32 248.73-15.97 248.73-13.11L248.73-13.11Q248.73-10.06 247.8-7.54 246.88-5.03 245.23-3.23 243.58-1.44 241.31-0.44 239.04 0.56 236.33 0.56L236.33 0.56Q234.4 0.56 232.9 0.16 231.4-0.24 230.03-0.88L230.03-0.88 230.03 7.3 233.99 7.3 233.99 11.5 221.97 11.5 221.97 7.3 225.44 7.3 225.44-21.09 221.93-21.09ZM236.23-21.9L236.23-21.9Q234.47-21.9 232.85-21.19 231.23-20.48 230.03-19.24L230.03-19.24 230.03-5.54Q230.84-4.71 232.34-4.05 233.84-3.39 236.09-3.39L236.09-3.39Q237.65-3.39 239.09-4 240.53-4.61 241.63-5.82 242.73-7.03 243.39-8.81 244.04-10.6 244.04-12.94L244.04-12.94Q244.04-15.09 243.42-16.75 242.8-18.41 241.74-19.56 240.68-20.7 239.26-21.3 237.84-21.9 236.23-21.9ZM253.22-33.79L253.22-37.99 261.43-37.99 261.43-4.2 265.23-4.2 265.23 0 253.22 0 253.22-4.2 256.88-4.2 256.88-33.79 253.22-33.79ZM269.33-12.65L269.33-12.65Q269.36-15.65 270.3-18.12 271.24-20.58 272.92-22.35 274.61-24.12 276.93-25.07 279.24-26.03 282.03-26.03L282.03-26.03Q284.84-26.03 287.17-25.07 289.5-24.12 291.16-22.38 292.82-20.63 293.75-18.16 294.67-15.7 294.67-12.7L294.67-12.7Q294.67-9.74 293.75-7.26 292.82-4.79 291.16-3 289.5-1.22 287.17-0.23 284.84 0.76 282.03 0.76L282.03 0.76Q279.17 0.76 276.85-0.22 274.53-1.2 272.87-2.97 271.21-4.74 270.29-7.2 269.36-9.67 269.33-12.65ZM274.14-12.65L274.14-12.65Q274.14-10.47 274.76-8.72 275.39-6.96 276.47-5.73 277.56-4.49 278.99-3.82 280.42-3.15 282.03-3.15L282.03-3.15Q283.71-3.15 285.17-3.81 286.62-4.47 287.69-5.7 288.77-6.93 289.38-8.69 289.99-10.45 289.99-12.65L289.99-12.65Q289.99-14.94 289.38-16.72 288.77-18.51 287.7-19.7 286.64-20.9 285.18-21.51 283.71-22.12 282.03-22.12L282.03-22.12Q280.42-22.12 278.99-21.51 277.56-20.9 276.47-19.7 275.39-18.51 274.76-16.72 274.14-14.94 274.14-12.65ZM314.45 0L314.45-2.34Q313.01-1 311.26-0.15 309.52 0.71 307.29 0.71L307.29 0.71Q305.44 0.71 303.89 0.12 302.34-0.46 301.22-1.48 300.09-2.49 299.47-3.83 298.85-5.18 298.85-6.69L298.85-6.69Q298.85-8.3 299.32-9.55 299.8-10.79 300.59-11.71 301.39-12.62 302.45-13.24 303.51-13.87 304.67-14.25 305.83-14.62 307.04-14.78 308.25-14.94 309.35-14.94L309.35-14.94Q311.1-14.94 312.3-14.83 313.5-14.72 314.47-14.53L314.47-14.53 314.5-16.6Q314.5-17.94 314.11-18.93 313.72-19.92 313.01-20.57 312.3-21.22 311.31-21.53 310.32-21.85 309.1-21.85L309.1-21.85Q307.95-21.85 306.9-21.69 305.85-21.53 304.94-21.28 304.02-21.02 303.25-20.69 302.48-20.36 301.95-20L301.95-20 300.46-23.14Q301.36-23.73 302.44-24.23 303.51-24.73 304.69-25.09 305.88-25.44 307.11-25.65 308.34-25.85 309.54-25.85L309.54-25.85Q311.74-25.85 313.5-25.33 315.25-24.8 316.47-23.71 317.69-22.61 318.35-20.91 319.01-19.21 319.01-16.85L319.01-16.85 318.99-4.2 321.8-4.2 321.8 0 314.45 0ZM308.3-3.1L308.3-3.1Q309.2-3.1 310.1-3.32 311.01-3.54 311.81-3.92 312.62-4.3 313.3-4.8 313.98-5.3 314.45-5.83L314.45-5.83 314.47-11.55 309.2-11.55Q307.88-11.55 306.79-11.25 305.71-10.96 304.91-10.4 304.12-9.84 303.68-9.01 303.24-8.18 303.24-7.1L303.24-7.1Q303.24-6.1 303.61-5.36 303.97-4.61 304.65-4.11 305.32-3.61 306.24-3.36 307.17-3.1 308.3-3.1ZM341.84-33.79L341.84-37.99 349.82-37.99 349.82-4.2 353.53-4.2 353.53 0 345.28 0 345.28-2.08Q344.06-0.83 342.45-0.13 340.84 0.56 338.79 0.56L338.79 0.56Q336.22 0.56 334.01-0.33 331.8-1.22 330.18-2.94 328.56-4.66 327.64-7.17 326.73-9.67 326.73-12.89L326.73-12.89Q326.73-15.82 327.6-18.23 328.48-20.63 330.09-22.33 331.71-24.02 333.98-24.96 336.25-25.9 339.03-25.9L339.03-25.9Q340.86-25.9 342.37-25.5 343.89-25.1 345.28-24.1L345.28-24.1 345.28-33.79 341.84-33.79ZM339.37-3.39L339.37-3.39Q341.4-3.39 342.77-3.99 344.13-4.59 345.28-5.79L345.28-5.79 345.28-19.95Q344.06-20.97 342.47-21.44 340.89-21.9 339.23-21.9L339.23-21.9Q337.61-21.9 336.2-21.3 334.78-20.7 333.72-19.56 332.66-18.41 332.05-16.75 331.44-15.09 331.44-12.94L331.44-12.94Q331.44-10.6 332.02-8.81 332.61-7.03 333.66-5.82 334.71-4.61 336.17-4 337.64-3.39 339.37-3.39ZM355.92 7.01L360.44-6.91 365.79-4.81 359.44 8.3 355.92 7.01ZM363.56 0Q363.56 0 363.56 0ZM377.99-32.79L377.99-37.01 390-37.01 390-32.79 386.29-32.79 386.29-4.2 399.06-4.2Q399.45-4.2 399.84-4.38 400.23-4.57 400.55-4.86 400.86-5.15 401.06-5.53 401.25-5.91 401.25-6.3L401.25-6.3 401.25-10.96 405.89-10.96 405.89 0 377.99 0 377.99-4.2 381.5-4.2 381.5-32.79 377.99-32.79ZM408.38-21.09L408.38-25.29 416.63-25.29 416.63-4.2 420.44-4.2 420.44 0 408.43 0 408.43-4.2 412.04-4.2 412.04-21.09 408.38-21.09ZM411.19-34.25L411.19-34.25Q411.19-34.89 411.44-35.46 411.7-36.04 412.13-36.46 412.56-36.89 413.14-37.15 413.73-37.4 414.39-37.4L414.39-37.4Q415.02-37.4 415.59-37.15 416.17-36.89 416.6-36.46 417.02-36.04 417.28-35.46 417.54-34.89 417.54-34.25L417.54-34.25Q417.54-33.59 417.28-33.01 417.02-32.42 416.6-31.97 416.17-31.52 415.59-31.26 415.02-31.01 414.39-31.01L414.39-31.01Q413.73-31.01 413.14-31.26 412.56-31.52 412.13-31.97 411.7-32.42 411.44-33.01 411.19-33.59 411.19-34.25ZM439.21-18.51Q439.21-19.53 438.74-20.25 438.26-20.97 437.5-21.42 436.75-21.88 435.82-22.08 434.89-22.29 434.01-22.29L434.01-22.29Q433.04-22.29 432.22-22.07 431.4-21.85 430.81-21.44 430.23-21.02 429.9-20.42 429.57-19.82 429.57-19.09L429.57-19.09Q429.57-17.82 430.34-17.08 431.11-16.33 432.91-15.7L432.91-15.7 437.77-13.99Q440.9-12.94 442.34-11.13 443.78-9.33 443.78-6.81L443.78-6.81Q443.78-5.13 443.11-3.72 442.44-2.32 441.2-1.33 439.97-0.34 438.24 0.21 436.5 0.76 434.38 0.76L434.38 0.76Q431.42 0.76 429.57-0.2 427.71-1.15 426.71-2.71L426.71-2.71 424.17-2.71 424.17-6.91 429.23-6.91Q429.23-5.86 429.68-5.11 430.13-4.37 430.88-3.91 431.62-3.44 432.56-3.22 433.5-3 434.48-3L434.48-3Q435.43-3 436.31-3.23 437.19-3.47 437.86-3.92 438.53-4.37 438.92-5 439.31-5.64 439.31-6.45L439.31-6.45Q439.31-7.67 438.52-8.52 437.72-9.38 435.82-10.06L435.82-10.06 430.99-11.87Q428.03-12.92 426.6-14.54 425.17-16.16 425.17-18.6L425.17-18.6Q425.17-20.21 425.77-21.58 426.37-22.95 427.51-23.94 428.64-24.93 430.28-25.49 431.91-26.05 434.01-26.05L434.01-26.05Q436.72-26.05 438.55-25.29 440.38-24.54 441.85-22.71L441.85-22.71 444.22-22.71 444.22-18.51 439.21-18.51ZM456.18-33.45L456.18-25.29 462.11-25.29 462.11-21.61 456.13-21.61 456.06-7.01Q456.06-5.52 456.4-4.59 456.74-3.66 457.5-3.31 458.25-2.95 459.21-2.95L459.21-2.95Q460.23-2.95 461.01-3.14 461.79-3.32 462.72-3.76L462.72-3.76 463.77-0.71Q462.6-0.1 461.31 0.26 460.01 0.61 458.25 0.61L458.25 0.61Q456.59 0.61 455.36 0.21 454.13-0.2 453.29-1.15 452.44-2.1 452.03-3.7 451.61-5.3 451.61-7.69L451.61-7.69 451.69-21.61 447.66-21.61 447.66-25.29 451.73-25.29 451.73-31.35 456.18-33.45ZM489.96-12.06L471.75-12.06Q471.75-10.99 471.91-10.1 472.07-9.2 472.36-8.4L472.36-8.4Q473.27-5.96 475.26-4.72 477.24-3.49 479.76-3.49L479.76-3.49Q481.74-3.49 483.6-4.04 485.47-4.59 487.52-5.76L487.52-5.76 489.35-2.66Q486.86-0.95 484.35-0.12 481.83 0.71 479.12 0.71L479.12 0.71Q476.56 0.71 474.38-0.15 472.19-1 470.62-2.69 469.04-4.37 468.15-6.88 467.26-9.4 467.26-12.74L467.26-12.74Q467.26-15.45 468.02-17.86 468.77-20.26 470.27-22.06 471.78-23.85 474-24.9 476.22-25.95 479.17-25.95L479.17-25.95Q482.03-25.95 483.95-25.09 485.86-24.22 487.07-22.79 488.28-21.36 488.9-19.53 489.53-17.7 489.77-15.8L489.77-15.8Q489.89-14.87 489.93-13.92 489.96-12.96 489.96-12.06L489.96-12.06ZM478.86-22.14L478.86-22.14Q477.27-22.14 476.09-21.69 474.9-21.24 474.07-20.4 473.24-19.56 472.74-18.33 472.24-17.11 472-15.6L472-15.6 485.11-15.6Q485.01-17.02 484.65-18.21 484.3-19.41 483.57-20.29 482.84-21.17 481.69-21.66 480.54-22.14 478.86-22.14ZM512.79 0L512.79-4.2 516.35-4.2 516.35-15.75Q516.35-18.65 514.88-20.15 513.4-21.66 510.64-21.66L510.64-21.66Q509.05-21.66 507.44-20.9 505.83-20.14 504.39-19.02L504.39-19.02 504.39-4.2 507.96-4.2 507.96 0 496.14 0 496.14-4.2 499.65-4.2 499.65-21.09 496.14-21.09 496.14-25.29 504.2-25.29 504.2-22.31 504.24-22.31Q505.05-23.02 505.97-23.66 506.88-24.29 507.88-24.76 508.88-25.22 509.97-25.49 511.06-25.76 512.25-25.76L512.25-25.76Q514.28-25.76 515.91-25.2 517.55-24.63 518.7-23.49 519.84-22.34 520.47-20.54 521.09-18.75 521.09-16.31L521.09-16.31 521.09-4.2 524.61-4.2 524.61 0 512.79 0Z" opacity="1" transform="matrix(1,0,0,1,0,0)" fill="#fa4238" class="slogan-text-1" data-fill-palette-color="secondary" id="text-1"></path></svg></g></svg></g></svg></g></svg></g><g transform="matrix(1,0,0,1,0,19.264824610870477)"><svg viewBox="0 0 130.17828898766086 187.64226678978696" height="187.64226678978696" width="130.17828898766086"><g><svg xmlns="http://www.w3.org/2000/svg" xmlns:xlink="http://www.w3.org/1999/xlink" version="1.1" x="0" y="0" viewBox="22.000000000000004 9.611456180001682 56.01274169979693 80.73817764386934" enable-background="new 0 0 100 100" xml:space="preserve" height="187.64226678978696" width="130.17828898766086" class="icon-icon-0" data-fill-palette-color="accent" id="icon-0"><g fill="#fa4238" data-fill-palette-color="accent"><path fill="#fa4238" d="M76.9 64c-0.7-0.1-1.3 0.4-1.4 1.1 0 0.1-1 7.3-7.8 8.2-8.7 1.2-10.6-3.6-11.9-6.8l-0.1-0.2c-1.2-2.9-2-5.5-2.6-7.4-0.7-2.1-1.1-3.3-1.5-4-0.4-0.5-8.8-13.1 1.9-23.6 3.7-3.7 8.8-4.7 13.5-2.9 4.6 1.8 7.5 5.8 7.7 10.5 0 0.7 0.6 1.3 1.3 1.2 0.7 0 1.3-0.6 1.2-1.3C77 33.2 73.3 28.1 67.8 26c-5.7-2.2-11.8-1-16.2 3.4-4.6 4.5-6.7 10.2-6 16.4 0.6 5.7 3.3 9.8 3.8 10.5 0.2 0.4 0.7 1.8 1.2 3.3 0.6 2 1.5 4.6 2.7 7.6l0.1 0.2c1.2 3.1 3.5 8.6 11.7 8.6 0.9 0 1.9-0.1 2.9-0.2 7-0.9 9.6-7.3 10-10.5C78.1 64.7 77.6 64.1 76.9 64z" data-fill-palette-color="accent"></path><path fill="#fa4238" d="M71.5 50.2c0.4-0.1 0.9 0.1 1.1 0.2 0.6 0.4 1.4 0.2 1.8-0.4 0.4-0.6 0.2-1.4-0.4-1.8-0.2-0.1-1.5-0.9-3.1-0.5-0.7 0.2-1.6 0.6-2.4 1.9-1.3 2.4 0.2 5.1 1.3 7 0.3 0.5 0.6 1 0.6 1.2 0.3 1.3-0.1 2.8-1 3.5-1 0.8-2.3 0.4-3.1-0.1-3.8-2.2-5.1-6-3.8-11.4 1.4-5.8 5.8-6.9 6.8-7.1 0.4 1.2 0.5 2.2 0.5 2.3 0.1 0.7 0.7 1.2 1.4 1.2 0.7-0.1 1.2-0.7 1.2-1.4 0-0.2-0.6-5.7-4.4-8.4-1.9-1.4-4.3-1.7-7.1-1.1-4.2 1-6.7 4.3-7.1 9.6-0.3 3.7 0.4 7.2 0.5 7.3 0.1 0.6 0.7 1 1.3 1 0.1 0 0.2 0 0.3 0 0.7-0.2 1.1-0.8 1-1.5 0 0-0.7-3.2-0.4-6.6 0.4-4.1 2.1-6.6 5.2-7.3 2-0.5 3.6-0.3 5 0.7 0.7 0.5 1.3 1.2 1.7 1.9-2.1 0.5-6.7 2.4-8.2 8.9-2 8.3 1.6 12.3 5 14.2 1 0.6 2.1 0.9 3.1 0.9 1 0 2-0.3 2.9-1 1.8-1.3 2.6-3.8 1.9-6.2-0.1-0.5-0.5-1.1-0.9-1.8-0.7-1.3-1.9-3.4-1.3-4.5C71.1 50.3 71.4 50.2 71.5 50.2z" data-fill-palette-color="accent"></path><path fill="#fa4238" d="M40.2 48.5c-0.1-0.8-0.8-1.4-1.6-1.4l-15.2 1.2c-0.8 0.1-1.4 0.8-1.4 1.6 0.1 0.8 0.7 1.4 1.5 1.4 0 0 0.1 0 0.1 0l15.2-1.2C39.6 50 40.2 49.3 40.2 48.5z" data-fill-palette-color="accent"></path><path fill="#fa4238" d="M29.3 30.4l11.1 3.2c0.2 0 0.3 0.1 0.5 0.1 0.7 0 1.4-0.5 1.6-1.2 0.3-0.9-0.3-1.8-1.1-2l-11.1-3.2c-0.9-0.3-1.8 0.3-2 1.1C27.9 29.3 28.4 30.2 29.3 30.4z" data-fill-palette-color="accent"></path><g fill="#fa4238" data-fill-palette-color="accent"><path fill="#fa4238" d="M27.9 85.6c0.7 1.8 3.1 5.2 7.4 4.7 0.6-0.1 1.2-0.2 1.7-0.3 4.9-1.2 5.4-4.7 5.7-6.7l0-0.1c0.3-1.9 0.4-3.6 0.5-4.9 0.1-1 0.1-1.9 0.2-2.1 0.2-0.5 1.2-3.3 0.7-6.7-0.5-3.7-2.5-6.8-5.9-8.8-3.3-2-7-1.9-10 0.3-2.9 2-4.3 5.5-3.7 8.9 0.1 0.4 0.5 0.7 0.9 0.6 0.4-0.1 0.7-0.5 0.6-0.9-0.6-2.8 0.6-5.6 3-7.3 2.5-1.8 5.6-1.8 8.3-0.2 7.8 4.7 4.6 13.3 4.5 13.6-0.2 0.5-0.2 1.2-0.3 2.6-0.1 1.2-0.2 2.9-0.5 4.8l0 0.1c-0.3 2.1-0.8 5.2-6 5.7-4.1 0.4-5.7-3.7-5.7-3.7-0.2-0.4-0.6-0.6-1-0.5C27.9 84.8 27.7 85.2 27.9 85.6z" data-fill-palette-color="accent"></path><path fill="#fa4238" d="M30.1 76c0.5 0.6 0.1 1.9-0.1 2.8-0.1 0.5-0.2 0.9-0.2 1.2 0 1.5 0.8 2.8 2 3.4 0.6 0.3 1.2 0.3 1.8 0.2 0.6-0.1 1.2-0.5 1.7-1 1.7-1.6 3.3-4.5 0.9-9.1-1.8-3.6-4.8-4-6.1-4.1 0.2-0.5 0.4-0.9 0.7-1.3 0.6-0.7 1.6-1.1 2.8-1.1 1.9 0 3.3 1.2 4.1 3.6 0.7 1.9 0.7 3.9 0.7 3.9 0 0.4 0.4 0.8 0.8 0.8 0.1 0 0.1 0 0.2 0 0.3-0.1 0.6-0.4 0.6-0.8 0-0.1 0-2.2-0.8-4.4-1-3-3-4.6-5.6-4.6-1.7 0-3.1 0.6-4 1.6-1.8 2.1-1.4 5.4-1.4 5.5 0.1 0.4 0.5 0.7 0.9 0.7 0.4-0.1 0.7-0.5 0.7-0.9 0 0-0.1-0.6 0-1.4 0.6 0 3.4 0 5 3.2 1.5 3 1.3 5.4-0.6 7.2-0.4 0.4-1.1 0.8-1.8 0.5-0.6-0.3-1.1-1.1-1.1-1.9 0-0.1 0.1-0.5 0.2-0.8 0.3-1.2 0.9-3.1-0.3-4.3-0.6-0.7-1.2-0.8-1.7-0.8-1 0-1.7 0.7-1.7 0.7-0.3 0.3-0.3 0.8 0 1.1 0.3 0.3 0.8 0.3 1.1 0 0.1-0.1 0.3-0.3 0.6-0.3C29.6 75.7 29.8 75.7 30.1 76z" data-fill-palette-color="accent"></path></g><path fill="#fa4238" d="M46.2 9.9c-0.7 0.4-1 1.2-0.7 1.7l6.3 9.4c0.3 0.5 1.2 0.6 1.9 0.1 0.7-0.4 1-1.1 0.7-1.6 0 0 0-0.1 0-0.1L48.1 10C47.8 9.5 46.9 9.5 46.2 9.9z" data-fill-palette-color="accent"></path></g></svg></g></svg></g></svg></g><defs></defs></svg><rect width="332.0916457874606" height="200" fill="none" stroke="none" visibility="hidden"></rect></g></svg></g></svg>